<svg width="38" height="114" viewBox="0 0 38 114" fill="none" xmlns="http://www.w3.org/2000/svg">
<path d="M16.2783 31.9986C17.326 31.6121 18.2795 31.1643 19.1333 30.6517V112V113H20.1333H36H37V112V2V1H36H21.6444H20.6444V2C20.6444 4.25037 20.1282 6.46007 19.081 8.63811L19.0769 8.64656L19.073 8.65509C18.1209 10.7343 16.7867 12.6217 15.0612 14.3188C13.3324 15.9146 11.3091 17.2691 8.98333 18.3786C6.80233 19.3632 4.47811 19.8571 2 19.8571H1V20.8571V33.4286V34.4286H2C5.26322 34.4286 8.09634 34.2168 10.4891 33.784L10.5104 33.7802L10.5316 33.7754C12.8662 33.2476 14.7893 32.6585 16.2783 31.9986Z" stroke="white" stroke-width="2"/>
</svg>
