<svg width="58" height="174" viewBox="0 0 58 174" fill="none" xmlns="http://www.w3.org/2000/svg">
<path d="M24.4475 47.8592C26.4719 47.1339 28.2595 46.27 29.8 45.2608V172V173H30.8H56H57V172V2V1H56H33.2H32.2V2C32.2 5.55997 31.3601 9.052 29.6635 12.4856L29.6592 12.4941L29.6552 12.5028C28.1127 15.7806 25.9511 18.754 23.16 21.4238C20.3653 23.9354 17.0974 26.0631 13.3483 27.8029C9.80223 29.3615 6.02286 30.1429 2 30.1429H1V31.1429V50.5714V51.5714H2C7.15842 51.5714 11.6195 51.2455 15.3733 50.5849L15.3942 50.5812L15.4148 50.5767C19.1115 49.7635 22.1298 48.8607 24.4475 47.8592Z" stroke="#DB9AFF" stroke-width="2"/>
</svg>
