<svg width="83" height="114" viewBox="0 0 83 114" fill="none" xmlns="http://www.w3.org/2000/svg">
<path d="M62.6823 28.4657L62.6894 28.4822L62.6971 28.4983C63.7372 30.683 64.25 32.8975 64.25 35.1507C64.25 38.9846 62.82 42.2964 59.903 45.1323L59.8971 45.138L59.8913 45.1438C56.9685 48.0799 53.1953 50.8913 48.5531 53.5706C43.9764 56.1691 38.9984 58.7696 33.6182 61.372C28.2694 63.9068 23.2215 66.8478 18.4752 70.1954C13.7886 73.4708 9.85663 77.3161 6.68756 81.732L6.68502 81.7356C3.54576 86.1506 2 91.485 2 97.6849V112V113H3H81H82V112V97.6849V96.6849H81H19.7821C20.0046 93.2645 21.384 90.2807 23.953 87.6975C26.9792 84.7567 30.7549 81.9947 35.2938 79.4176L35.2998 79.4141C39.9747 76.7162 44.9507 74.1168 50.2282 71.616L50.2354 71.6126C55.68 68.9791 60.7264 66.0394 65.3728 62.7923L65.3764 62.7898C70.1575 59.4175 74.0909 55.5734 77.1629 51.2536C80.4005 46.742 82 41.3579 82 35.1507C82 30.4931 81.0718 26.084 79.2126 21.9337C77.3558 17.7884 74.724 14.1608 71.3244 11.0561C67.9226 7.94952 63.8619 5.52603 59.1569 3.77816C54.4283 1.92079 49.2051 1 43.5 1C37.9971 1 32.9282 1.86985 28.3044 3.62321C23.7077 5.26613 19.657 7.53036 16.1626 10.4213C12.6788 13.3033 9.70877 16.6993 7.25342 20.6047L7.2534 20.6047L7.24964 20.6108C4.89945 24.4088 3.15976 28.4167 2.03386 32.6324L1.72913 33.7734L2.90476 33.8859L18.6548 35.3927L19.4301 35.4669L19.6918 34.7334C21.5392 29.5567 24.345 25.3901 28.0977 22.2003L28.1033 22.1955L28.1088 22.1906C31.7759 18.9791 36.8654 17.3151 43.5 17.3151C46.5834 17.3151 49.3479 17.847 51.8089 18.8929L51.8299 18.9019L51.8513 18.9098C54.4484 19.8761 56.6362 21.1711 58.4315 22.7848L58.441 22.7933L58.4506 22.8016C60.34 24.4148 61.7456 26.3014 62.6823 28.4657Z" stroke="#3577B4" stroke-width="2"/>
</svg>
