<svg width="99" height="136" viewBox="0 0 99 136" fill="none" xmlns="http://www.w3.org/2000/svg">
<path d="M75.1137 33.6808L75.1208 33.6973L75.1286 33.7135C76.3939 36.36 77.0192 39.0462 77.0192 41.7808C77.0192 46.4371 75.2725 50.4617 71.7199 53.9007L71.714 53.9064L71.7082 53.9122C68.1702 57.4512 63.6073 60.8354 58.001 64.0572C52.4805 67.1783 46.4765 70.3015 39.9883 73.4264C33.5527 76.4632 27.4794 79.9866 21.7694 83.9969C16.1391 87.915 11.4171 92.5135 7.61181 97.7934L7.60926 97.797C3.85393 103.056 2 109.416 2 116.822V134V135H3H97H98V134V116.822V115.822H97H23.0072C23.2342 111.579 24.9216 107.883 28.1053 104.696C31.7673 101.153 36.3327 97.8278 41.8153 94.7281L41.8213 94.7246C47.4603 91.4842 53.4619 88.3623 59.8267 85.3592L59.8339 85.3558C66.3861 82.2001 72.4581 78.6778 78.0481 74.788L78.0517 74.7855C83.7973 70.7501 88.5208 66.1525 92.2087 60.9884C96.0823 55.6129 98 49.1939 98 41.7808C98 36.2185 96.8869 30.955 94.6581 26.0007C92.4317 21.0515 89.2764 16.7207 85.1997 13.0136C81.1209 9.30452 76.25 6.40925 70.6018 4.32012C64.9299 2.10145 58.661 1 51.8077 1C45.1976 1 39.1138 2.04048 33.5672 4.13507C28.0478 6.09919 23.1869 8.8051 18.995 12.2583C14.8137 15.7027 11.2485 19.7616 8.3006 24.4305L8.30057 24.4305L8.2968 24.4366C5.47456 28.978 3.38588 33.7697 2.03414 38.8094L1.72773 39.9518L2.90516 40.064L21.8859 41.8722L22.6599 41.9459L22.9221 41.2141C25.1588 34.9731 28.559 29.9425 33.1114 26.0893L33.1171 26.0846L33.1226 26.0797C37.5897 22.1842 43.7772 20.1781 51.8077 20.1781C55.548 20.1781 58.908 20.8207 61.9026 22.088L61.9235 22.0969L61.9449 22.1048C65.0962 23.2723 67.7558 24.8389 69.9408 26.7945L69.9503 26.8029L69.9599 26.8112C72.2594 28.7663 73.9723 31.0548 75.1137 33.6808Z" stroke="#DB9AFF" stroke-width="2"/>
</svg>
