<svg width="88" height="114" viewBox="0 0 88 114" fill="none" xmlns="http://www.w3.org/2000/svg">
<path d="M19.7973 77.036L19.539 76.2334L18.7042 76.3525L2.85878 78.6128L1.71958 78.7753L2.0394 79.8807C3.37182 84.486 5.2693 88.7885 7.73233 92.7849L7.73715 92.7928L7.74212 92.8005C10.3097 96.8 13.3923 100.34 16.9879 103.417L16.9995 103.427L17.0114 103.437C20.7286 106.427 25.0056 108.74 29.8328 110.382C34.6839 112.133 40.08 113 46.0091 113C52.1482 113 57.753 112.03 62.8108 110.073C67.8458 108.225 72.1362 105.649 75.6631 102.337C79.2789 99.0343 82.0754 95.209 84.0436 90.8647L84.0472 90.8567C86.0175 86.4043 87 81.6448 87 76.589C87 71.9342 86.0674 67.5276 84.1997 63.3797C82.445 59.2601 80.0688 55.5977 77.0716 52.3985C74.0752 49.2002 70.6121 46.6189 66.687 44.6579C63.0359 42.7405 59.2418 41.5313 55.3091 41.0369V40.8561L82.1588 15.5357L82.4727 15.2397V14.8082V2V1H81.4727H12.8091H11.8091V2V16.3151V17.3151H12.8091H56.3273V17.3899L30.2327 41.9568L29.9182 42.2529V42.6849V55.4931V56.4931H30.9182H46.0091C49.519 56.4931 52.6564 57.077 55.4363 58.2256L55.4552 58.2334L55.4744 58.2404C58.3875 59.307 60.8382 60.7517 62.8442 62.5639C64.8492 64.3753 66.3733 66.5157 67.4229 68.9929L67.4321 69.0147L67.4424 69.036C68.584 71.4109 69.1545 73.9248 69.1545 76.589C69.1545 79.2535 68.5838 81.823 67.4359 84.3064L67.4322 84.3146L67.4286 84.3228C66.3808 86.7004 64.8564 88.7963 62.8442 90.6141C60.8329 92.4312 58.3755 93.9282 55.4558 95.0953C52.67 96.1491 49.5256 96.6849 46.0091 96.6849C42.4853 96.6849 39.3327 96.1971 36.5398 95.2375C33.7243 94.1696 31.2089 92.7678 28.9874 91.0351C26.8521 89.1908 25.0086 87.1067 23.455 84.7811C21.8938 82.344 20.6751 79.7629 19.7973 77.036Z" stroke="white" stroke-width="2"/>
</svg>
