<svg width="104" height="136" viewBox="0 0 104 136" fill="none" xmlns="http://www.w3.org/2000/svg">
<path d="M22.8524 92.1062L22.5948 91.301L21.7579 91.4211L2.85795 94.1334L1.7217 94.2965L2.03895 95.3997C3.62323 100.909 5.87915 106.055 8.80728 110.835L8.81207 110.843L8.81701 110.85C11.8691 115.633 15.5332 119.866 19.8075 123.547L19.8191 123.557L19.8309 123.566C24.2462 127.139 29.3281 129.905 35.0672 131.869C40.8304 133.962 47.2454 135 54.3 135C61.6036 135 68.2661 133.839 74.2749 131.499C80.2605 129.289 85.3557 126.211 89.5416 122.255C93.8361 118.31 97.1556 113.741 99.4918 108.553L99.4954 108.545C101.834 103.229 103 97.5462 103 91.5068C103 85.9486 101.893 80.6888 99.6768 75.7375C97.5929 70.8148 94.7711 66.4392 91.2118 62.6171C87.6533 58.7958 83.5406 55.7118 78.8782 53.3686C74.4897 51.0497 69.9288 49.5984 65.2 49.0218V48.5393L97.2883 18.0953L97.6 17.7996V17.3699V2V1H96.6H14.7H13.7V2V19.1781V20.1781H14.7H66.8V20.5561L35.6123 50.0959L35.3 50.3917V50.8219V66.1918V67.1918H36.3H54.3C58.5074 67.1918 62.2743 67.8959 65.6162 69.285L65.6351 69.2929L65.6544 69.3C69.1489 70.5872 72.0939 72.3327 74.5074 74.5263C76.92 76.7191 78.7549 79.3114 80.0184 82.3114L80.0276 82.3331L80.0377 82.3544C81.4127 85.232 82.1 88.2791 82.1 91.5068C82.1 94.7349 81.4125 97.8475 80.0313 100.854L80.0276 100.862L80.024 100.87C78.7624 103.75 76.9271 106.288 74.5074 108.487C72.0886 110.686 69.1366 112.494 65.6352 113.902C62.2877 115.176 58.5138 115.822 54.3 115.822C50.0787 115.822 46.2965 115.234 42.9418 114.074C39.5642 112.785 36.5446 111.093 33.877 108.999C31.3149 106.773 29.1026 104.257 27.2384 101.449C25.3666 98.5098 23.9051 95.396 22.8524 92.1062Z" stroke="#DB9AFF" stroke-width="2"/>
</svg>
