<svg width="93" height="113" viewBox="0 0 93 113" fill="none" xmlns="http://www.w3.org/2000/svg">
<path d="M58.5823 113V90.4099H0V73.1628L37.4787 0H60.6661L23.9546 71.6653H58.5823V43.6223H78.9403V71.6653H93V90.4099H78.9403V113H58.5823ZM76.9628 88.4378H91.0225V73.6374H76.9628V45.5944H60.5597V73.6374H20.7238L57.4354 1.97208H38.689L1.97746 73.6374V88.4378H60.5597V111.028H76.9628V88.4378Z" fill="#3577B4"/>
<path d="M58.5823 113V90.4099H0V73.1628L37.4787 0H60.6661L23.9546 71.6653H58.5823V43.6223H78.9403V71.6653H93V90.4099H78.9403V113H58.5823ZM76.9628 88.4378H91.0225V73.6374H76.9628V45.5944H60.5597V73.6374H20.7238L57.4354 1.97208H38.689L1.97746 73.6374V88.4378H60.5597V111.028H76.9628V88.4378Z" stroke="#3577B4"/>
</svg>
