<svg width="82" height="110" viewBox="0 0 82 110" fill="none" xmlns="http://www.w3.org/2000/svg">
<path fill-rule="evenodd" clip-rule="evenodd" d="M12.3104 53.9308L21.513 0H76.9988V17.5222H37.4351L34.4463 36.4086H43.0393C48.7583 36.4086 54.0313 37.3629 58.8363 39.2989C63.6116 41.1262 67.7266 43.7273 71.1528 47.1138C74.5696 50.394 77.2307 54.2875 79.1338 58.7767C81.0519 63.2036 82 68.0209 82 73.2043C82 78.3908 81.0508 83.2531 79.1368 87.7704L79.1308 87.7846C77.2261 92.1779 74.5671 96.063 71.1628 99.4306L71.1528 99.4405L71.1427 99.4502C67.7165 102.737 63.6047 105.285 58.8363 107.11C54.0313 109.046 48.7583 110 43.0393 110C37.3439 110 32.1356 109.15 27.4363 107.42C22.7803 105.803 18.6426 103.52 15.0409 100.563L15.0194 100.545L14.9984 100.527C11.5296 97.4966 8.55555 94.0104 6.07927 90.0733L6.0703 90.059L6.06158 90.0446C3.68778 86.1131 1.85999 81.882 0.577319 77.3568L0 75.32L18.5737 72.6157L19.0407 74.0965C19.8482 76.6569 20.9688 79.0806 22.4053 81.3709C23.8282 83.5435 25.5152 85.4914 27.47 87.2171C29.4938 88.8255 31.7891 90.1319 34.3668 91.1312C36.9037 92.0191 39.7876 92.4778 43.0393 92.4778C46.0749 92.4778 48.7951 91.9789 51.2223 91.0094C53.8005 89.9202 55.9339 88.5339 57.654 86.8687C59.4795 85.0964 60.8586 83.072 61.8071 80.7871L61.8134 80.7719L61.82 80.7567C62.8587 78.3747 63.3788 75.8631 63.3788 73.2043C63.3788 70.5453 62.8588 68.0919 61.8306 65.8213L61.8133 65.7832L61.7978 65.7443C60.8492 63.3714 59.4799 61.3701 57.6868 59.7166L57.6533 59.6857L57.6213 59.6531C55.9139 57.9129 53.8038 56.5431 51.2571 55.5586L51.2213 55.5447L51.1861 55.5293C48.7687 54.4734 46.0617 53.9308 43.0393 53.9308H12.3104ZM58.9003 88.2046C56.9951 90.0493 54.6612 91.5542 51.8986 92.7193C49.2313 93.7873 46.2782 94.3213 43.0393 94.3213C39.6099 94.3213 36.5139 93.8358 33.7513 92.8649C30.9887 91.7969 28.5119 90.3891 26.3209 88.6415C24.2252 86.7968 22.4152 84.7094 20.891 82.3792C19.3668 79.952 18.1761 77.3791 17.3187 74.6606L2.31502 76.8451C2.4851 77.4452 2.66506 78.0397 2.8549 78.6287C4.04736 82.3287 5.62974 85.812 7.60203 89.0784C9.98357 92.8649 12.8414 96.2145 16.1756 99.1272C19.605 101.943 23.5583 104.127 28.0356 105.681C32.5129 107.331 37.5141 108.157 43.0393 108.157C48.5644 108.157 53.6133 107.234 58.1859 105.389C62.7584 103.642 66.6641 101.215 69.903 98.1077C73.1419 94.9038 75.6663 91.2144 77.4763 87.0396C79.2863 82.7676 80.1912 78.1559 80.1912 73.2043C80.1912 68.2527 79.2863 63.6895 77.4763 59.5147C75.6663 55.2427 73.1419 51.5533 69.903 48.4465C66.6641 45.2425 62.7584 42.7667 58.1859 41.0191C53.6133 39.1744 48.5644 38.252 43.0393 38.252H32.3224L35.8947 15.6787H75.19V1.84347H23.0344L14.4609 52.0873H43.0393C46.2782 52.0873 49.2313 52.6698 51.8986 53.8349C54.6612 54.9029 56.9951 56.4078 58.9003 58.3496C60.9008 60.1943 62.425 62.4273 63.4729 65.0488C64.616 67.5731 65.1876 70.2916 65.1876 73.2043C65.1876 76.117 64.616 78.884 63.4729 81.5054C62.425 84.0298 60.9008 86.2628 58.9003 88.2046Z" fill="white"/>
</svg>
