<svg width="87" height="133" viewBox="0 0 87 133" fill="none" xmlns="http://www.w3.org/2000/svg">
<path fill-rule="evenodd" clip-rule="evenodd" d="M13.061 65.2072L22.8248 0H81.6938V21.1859H39.7177L36.5466 44.0213H45.6636C51.7313 44.0213 57.3259 45.1751 62.4238 47.5159C67.4903 49.7253 71.8563 52.8703 75.4914 56.9648C79.1165 60.9309 81.9399 65.6385 83.9591 71.0664C85.9941 76.4189 87 82.2435 87 88.5106C87 94.7817 85.9929 100.661 83.9623 106.122L83.9558 106.14C81.935 111.451 79.1138 116.149 75.502 120.221L75.4914 120.233L75.4806 120.244C71.8455 124.218 67.483 127.299 62.4238 129.505C57.3259 131.846 51.7313 133 45.6636 133C39.6209 133 34.0951 131.972 29.1093 129.881C24.1694 127.925 19.7794 125.165 15.958 121.59L15.9352 121.568L15.913 121.546C12.2327 117.882 9.07723 113.667 6.44996 108.907L6.44044 108.89L6.43119 108.872C3.91264 104.119 1.97341 99.0028 0.612521 93.5314L0 91.0687L19.7062 87.799L20.2017 89.5894C21.0584 92.6851 22.2474 95.6157 23.7715 98.3849C25.2812 101.012 27.071 103.367 29.145 105.453C31.2922 107.398 33.7275 108.978 36.4624 110.186C39.154 111.259 42.2137 111.814 45.6636 111.814C48.8843 111.814 51.7704 111.211 54.3457 110.039C57.081 108.722 59.3445 107.046 61.1694 105.032C63.1063 102.889 64.5695 100.442 65.5758 97.679L65.5825 97.6606L65.5895 97.6422C66.6916 94.7622 67.2434 91.7254 67.2434 88.5106C67.2434 85.2957 66.6917 82.3293 65.6007 79.5839L65.5824 79.5378L65.5659 79.4908C64.5596 76.6218 63.1067 74.202 61.2043 72.2028L61.1687 72.1654L61.1348 72.126C59.3233 70.022 57.0845 68.3657 54.3825 67.1754L54.3445 67.1586L54.3072 67.14C51.7424 65.8633 48.8703 65.2072 45.6636 65.2072H13.061ZM62.4918 106.647C60.4704 108.878 57.9942 110.697 55.0631 112.106C52.2332 113.397 49.1 114.043 45.6636 114.043C42.0251 114.043 38.7403 113.456 35.8093 112.282C32.8783 110.991 30.2504 109.289 27.9258 107.176C25.7023 104.945 23.782 102.421 22.1648 99.604C20.5477 96.6692 19.2843 93.5584 18.3747 90.2715L2.45618 92.9128C2.63663 93.6382 2.82756 94.3571 3.02897 95.0693C4.29415 99.5429 5.97302 103.754 8.06557 107.704C10.5923 112.282 13.6244 116.332 17.1619 119.854C20.8004 123.258 24.9948 125.899 29.7451 127.778C34.4954 129.773 39.8016 130.771 45.6636 130.771C51.5257 130.771 56.8824 129.656 61.7338 127.425C66.5851 125.312 70.729 122.378 74.1654 118.621C77.6018 114.747 80.2801 110.286 82.2005 105.239C84.1208 100.074 85.0809 94.4975 85.0809 88.5106C85.0809 82.5237 84.1208 77.0064 82.2005 71.9586C80.2801 66.7935 77.6018 62.3326 74.1654 58.5762C70.729 54.7023 66.5851 51.7088 61.7338 49.5958C56.8824 47.3654 51.5257 46.2502 45.6636 46.2502H34.2933L38.0834 18.957H79.7748V2.22893H24.4389L15.3426 62.9783H45.6636C49.1 62.9783 52.2332 63.6826 55.0631 65.0913C57.9942 66.3826 60.4704 68.2021 62.4918 70.55C64.6143 72.7804 66.2314 75.4803 67.3432 78.6499C68.556 81.702 69.1624 84.9889 69.1624 88.5106C69.1624 92.0323 68.556 95.378 67.3432 98.5475C66.2314 101.6 64.6143 104.3 62.4918 106.647Z" fill="#DB9AFF"/>
</svg>
