<svg width="82" height="110" viewBox="0 0 82 110" fill="none" xmlns="http://www.w3.org/2000/svg">
<path fill-rule="evenodd" clip-rule="evenodd" d="M33.7474 36.7957H34.4727C35.1496 36.2132 35.9715 35.7277 36.9386 35.3394C37.062 35.2774 37.1904 35.2166 37.3237 35.1571C38.0257 34.8438 38.8644 34.5647 39.8396 34.3199C41.0967 34.0287 42.4505 33.883 43.901 33.883C48.9295 33.883 53.6678 34.8539 58.1161 36.7957C62.5643 38.6404 66.384 41.2133 69.5751 44.5143C72.863 47.8154 75.4256 51.7475 77.2629 56.3107C79.1969 60.8739 80.1639 65.7769 80.1639 71.0198C80.1639 76.2626 79.1969 81.1656 77.2629 85.7288C75.4256 90.2921 72.7663 94.2242 69.285 97.5252C65.8038 100.826 61.6457 103.399 56.8106 105.244C52.0723 107.186 46.8021 108.157 41 108.157C35.1979 108.157 29.8794 107.186 25.0443 105.244C20.306 103.399 16.1962 100.826 12.715 97.5252C9.23372 94.2242 6.52609 90.2921 4.59207 85.7288C2.75475 81.1656 1.83609 76.2626 1.83609 71.0198C1.83609 67.6216 2.2229 64.4662 2.99651 61.5535C3.77012 58.5438 4.68877 55.9709 5.75249 53.8349C6.9129 51.3106 8.26671 49.029 9.81393 46.9901L43.1758 1.84347H60.582L33.7474 36.7957ZM8.34628 45.8823C6.71974 48.0273 5.30482 50.4142 4.09735 53.0364C2.96801 55.31 2.01391 58.0005 1.22046 61.0859C0.402168 64.1697 0 67.4841 0 71.0198C0 76.4838 0.958451 81.623 2.88981 86.4198L2.89606 86.4353L2.90258 86.4507C4.9324 91.2399 7.78336 95.3846 11.4543 98.8654C15.1163 102.338 19.4291 105.034 24.3713 106.959C29.4443 108.995 34.9945 110 41 110C47 110 52.5031 108.997 57.4838 106.959C62.5177 105.036 66.8802 102.341 70.5457 98.8654C74.2196 95.3817 77.0252 91.2318 78.9588 86.4354C80.9907 81.6354 82 76.4904 82 71.0198C82 65.5491 80.9907 60.4041 78.9588 55.6041C77.0365 50.8353 74.3461 46.7001 70.8832 43.2206C67.5143 39.7383 63.49 37.0321 58.8328 35.0984C54.1495 33.0565 49.1661 32.0396 43.901 32.0396C42.3285 32.0396 40.8348 32.1974 39.4267 32.5237L39.4105 32.5274L39.3943 32.5315C39.3716 32.5372 39.349 32.5429 39.3264 32.5486L64.3155 0H42.2518L8.34628 45.8823ZM61.3615 79.4651L61.3724 79.4407C62.5163 76.8785 63.0974 74.0793 63.0974 71.0198C63.0974 67.9602 62.5163 65.161 61.3724 62.5989L61.3615 62.5744L61.3512 62.5497C60.2854 59.9635 58.7848 57.7525 56.8483 55.8966L56.8328 55.8818L56.8178 55.8666C54.873 53.914 52.5707 52.3992 49.8915 51.3232L49.8673 51.3134L49.8434 51.303C47.1951 50.1508 44.2556 49.5618 41 49.5618C37.7444 49.5618 34.8049 50.1508 32.1566 51.303L32.1327 51.3134L32.1085 51.3232C29.4293 52.3992 27.127 53.914 25.1822 55.8666L25.1671 55.8818L25.1517 55.8966C23.2101 57.7574 21.6567 59.9772 20.4935 62.5744C19.4394 65.1417 18.9026 67.9501 18.9026 71.0198C18.9026 74.0894 19.4394 76.8978 20.4936 79.4652C21.6571 82.0637 23.2144 84.3391 25.1672 86.3035C27.1175 88.1689 29.433 89.6941 32.1328 90.8717C34.7872 91.9339 37.7357 92.4778 41 92.4778C44.2643 92.4778 47.2128 91.9339 49.8672 90.8717C52.567 89.6941 54.8826 88.1688 56.8329 86.3034C58.7808 84.3437 60.285 82.0769 61.3512 79.4899L61.3615 79.4651ZM50.5734 92.5737C47.6724 93.7387 44.4812 94.3213 41 94.3213C37.5188 94.3213 34.3276 93.7387 31.4266 92.5737C28.5256 91.3115 26.0113 89.661 23.8839 87.6221C21.7565 85.4861 20.0642 83.0103 18.8071 80.1947C17.6467 77.3791 17.0665 74.3208 17.0665 71.0198C17.0665 67.7187 17.6467 64.6604 18.8071 61.8448C20.0642 59.0292 21.7565 56.602 23.8839 54.5631C26.0113 52.4271 28.5256 50.7766 31.4266 49.6115C34.3276 48.3494 37.5188 47.7183 41 47.7183C44.4812 47.7183 47.6724 48.3494 50.5734 49.6115C53.4744 50.7766 55.9887 52.4271 58.1161 54.5631C60.2435 56.602 61.8874 59.0292 63.0478 61.8448C64.3049 64.6604 64.9335 67.7187 64.9335 71.0198C64.9335 74.3208 64.3049 77.3791 63.0478 80.1947C61.8874 83.0103 60.2435 85.4861 58.1161 87.6221C55.9887 89.661 53.4744 91.3115 50.5734 92.5737Z" fill="#3577B4"/>
</svg>
