<svg width="101" height="135" viewBox="0 0 101 135" fill="none" xmlns="http://www.w3.org/2000/svg">
<path fill-rule="evenodd" clip-rule="evenodd" d="M41.567 45.1584H42.4603C43.294 44.4434 44.3064 43.8477 45.4975 43.371C45.6496 43.295 45.8077 43.2204 45.9719 43.1474C46.8366 42.7628 47.8695 42.4203 49.0707 42.1199C50.6191 41.7624 52.2866 41.5837 54.0732 41.5837C60.2668 41.5837 66.1031 42.7753 71.582 45.1584C77.0609 47.4223 81.7657 50.5799 85.6962 54.6312C89.7459 58.6825 92.9022 63.5083 95.1652 69.1086C97.5474 74.7089 98.7385 80.7262 98.7385 87.1606C98.7385 93.595 97.5474 99.6124 95.1652 105.213C92.9022 110.813 89.6267 115.639 85.3389 119.69C81.051 123.741 75.9294 126.899 69.974 129.163C64.1378 131.546 57.6464 132.738 50.5 132.738C43.3536 132.738 36.8027 131.546 30.8473 129.163C25.011 126.899 19.949 123.741 15.6611 119.69C11.3732 115.639 8.03824 110.813 5.65609 105.213C3.39305 99.6124 2.26153 93.595 2.26153 87.1606C2.26153 82.9902 2.73796 79.1176 3.69082 75.543C4.64368 71.8492 5.7752 68.6916 7.08538 66.0701C8.51467 62.9721 10.1822 60.1719 12.0879 57.6697L53.1799 2.26244H74.6192L41.567 45.1584ZM10.2802 56.3101C8.27676 58.9426 6.53399 61.872 5.04674 65.0901C3.65572 67.8805 2.48055 71.1824 1.50325 74.9691C0.495353 78.7537 0 82.8214 0 87.1606C0 93.8665 1.18053 100.174 3.5594 106.061L3.56709 106.08L3.57513 106.099C6.07528 111.976 9.58682 117.063 14.1083 121.335C18.6189 125.597 23.931 128.905 30.0183 131.268C36.2667 133.766 43.103 135 50.5 135C57.8903 135 64.6685 133.769 70.8032 131.268C77.0035 128.907 82.3768 125.601 86.8917 121.335C91.4168 117.059 94.8725 111.966 97.2542 106.08C99.7569 100.189 101 93.8746 101 87.1606C101 80.4466 99.7569 74.1323 97.2541 68.2413C94.8864 62.3888 91.5727 57.3138 87.3074 53.0435C83.1578 48.7698 78.2011 45.4485 72.4647 43.0753C66.6963 40.5694 60.5583 39.3213 54.0732 39.3213C52.1363 39.3213 50.2965 39.515 48.5622 39.9154L48.5422 39.92L48.5222 39.925C48.4943 39.932 48.4664 39.939 48.4386 39.9461L79.2179 0H52.0418L10.2802 56.3101ZM75.5793 97.5254L75.5928 97.4953C77.0018 94.3509 77.7175 90.9156 77.7175 87.1606C77.7175 83.4057 77.0018 79.9704 75.5928 76.8259L75.5793 76.7959L75.5668 76.7655C74.254 73.5916 72.4056 70.878 70.0205 68.6003L70.0014 68.5822L69.9828 68.5636C67.5874 66.1672 64.7518 64.3081 61.4517 62.9875L61.4219 62.9756L61.3924 62.9628C58.1305 61.5487 54.51 60.8258 50.5 60.8258C46.49 60.8258 42.8695 61.5487 39.6076 62.9628L39.5781 62.9756L39.5483 62.9875C36.2482 64.3081 33.4126 66.1672 31.0171 68.5636L30.9986 68.5822L30.9795 68.6003C28.588 70.8841 26.6747 73.6084 25.242 76.7958C23.9436 79.9467 23.2825 83.3933 23.2825 87.1606C23.2825 90.9279 23.9436 94.3746 25.2421 97.5255C26.6752 100.715 28.5933 103.507 30.9986 105.918C33.4008 108.207 36.2529 110.079 39.5782 111.524C42.8477 112.828 46.4793 113.495 50.5 113.495C54.5207 113.495 58.1523 112.828 61.4218 111.524C64.7472 110.079 67.5993 108.207 70.0015 105.918C72.4007 103.513 74.2535 100.731 75.5668 97.5558L75.5793 97.5254ZM62.2916 113.613C58.7184 115.043 54.7879 115.758 50.5 115.758C46.2121 115.758 42.2816 115.043 38.7084 113.613C35.1352 112.064 32.0384 110.038 29.418 107.536C26.7976 104.915 24.7133 101.876 23.1649 98.4208C21.7356 94.9653 21.0209 91.2119 21.0209 87.1606C21.0209 83.1094 21.7356 79.356 23.1649 75.9005C24.7133 72.4449 26.7976 69.4661 29.418 66.9638C32.0384 64.3424 35.1352 62.3167 38.7084 60.8869C42.2816 59.3379 46.2121 58.5634 50.5 58.5634C54.7879 58.5634 58.7184 59.3379 62.2916 60.8869C65.8648 62.3167 68.9616 64.3424 71.582 66.9638C74.2024 69.4661 76.2272 72.4449 77.6565 75.9005C79.2049 79.356 79.9791 83.1094 79.9791 87.1606C79.9791 91.2119 79.2049 94.9653 77.6565 98.4208C76.2272 101.876 74.2024 104.915 71.582 107.536C68.9616 110.038 65.8648 112.064 62.2916 113.613Z" fill="#DB9AFF"/>
</svg>
