<svg width="155" height="141" viewBox="0 0 155 141" fill="none" xmlns="http://www.w3.org/2000/svg">
<g filter="url(#filter0_d_3_331)">
<path d="M18.6728 112.592C17.343 112.221 15.9638 112.997 15.5922 114.327C15.2207 115.657 15.9975 117.036 17.3272 117.408L18.6728 112.592ZM133 11L111.817 30.612L139.393 39.1507L133 11ZM17.3272 117.408C38.7069 123.382 59.6632 123.052 78.8379 110.559C97.8993 98.1395 114.764 73.974 128.711 33.2999L123.981 31.6782C110.193 71.8909 93.8189 94.8303 76.1084 106.369C58.5112 117.835 39.1622 118.317 18.6728 112.592L17.3272 117.408Z" fill="#1DACAE"/>
</g>
<defs>
<filter id="filter0_d_3_331" x="0.49939" y="0" width="153.894" height="140.176" filterUnits="userSpaceOnUse" color-interpolation-filters="sRGB">
<feFlood flood-opacity="0" result="BackgroundImageFix"/>
<feColorMatrix in="SourceAlpha" type="matrix" values="0 0 0 0 0 0 0 0 0 0 0 0 0 0 0 0 0 0 127 0" result="hardAlpha"/>
<feOffset dy="4"/>
<feGaussianBlur stdDeviation="7.5"/>
<feComposite in2="hardAlpha" operator="out"/>
<feColorMatrix type="matrix" values="0 0 0 0 0 0 0 0 0 0 0 0 0 0 0 0 0 0 0.25 0"/>
<feBlend mode="normal" in2="BackgroundImageFix" result="effect1_dropShadow_3_331"/>
<feBlend mode="normal" in="SourceGraphic" in2="effect1_dropShadow_3_331" result="shape"/>
</filter>
</defs>
</svg>
