<svg width="183" height="137" viewBox="0 0 183 137" fill="none" xmlns="http://www.w3.org/2000/svg">
<g filter="url(#filter0_d_3_322)">
<path d="M18.6728 108.592C17.343 108.221 15.9638 108.997 15.5922 110.327C15.2207 111.657 15.9975 113.036 17.3272 113.408L18.6728 108.592ZM162 11L140.409 30.1612L167.798 39.2792L162 11ZM17.3272 113.408C38.7274 119.387 65.6816 119.856 91.3488 108.511C117.075 97.1408 141.259 74.0114 157.222 33.2578L152.566 31.4343C137.023 71.1163 113.701 93.1651 89.3275 103.938C64.8949 114.737 39.155 114.315 18.6728 108.592L17.3272 113.408Z" fill="#B77AD9"/>
</g>
<defs>
<filter id="filter0_d_3_322" x="0.499268" y="0" width="182.299" height="136.564" filterUnits="userSpaceOnUse" color-interpolation-filters="sRGB">
<feFlood flood-opacity="0" result="BackgroundImageFix"/>
<feColorMatrix in="SourceAlpha" type="matrix" values="0 0 0 0 0 0 0 0 0 0 0 0 0 0 0 0 0 0 127 0" result="hardAlpha"/>
<feOffset dy="4"/>
<feGaussianBlur stdDeviation="7.5"/>
<feComposite in2="hardAlpha" operator="out"/>
<feColorMatrix type="matrix" values="0 0 0 0 0 0 0 0 0 0 0 0 0 0 0 0 0 0 0.25 0"/>
<feBlend mode="normal" in2="BackgroundImageFix" result="effect1_dropShadow_3_322"/>
<feBlend mode="normal" in="SourceGraphic" in2="effect1_dropShadow_3_322" result="shape"/>
</filter>
</defs>
</svg>
