<svg width="46" height="24" viewBox="0 0 46 24" fill="none" xmlns="http://www.w3.org/2000/svg">
<path d="M1.70711 0.292893C1.31658 -0.0976311 0.683418 -0.0976311 0.292893 0.292893C-0.0976311 0.683417 -0.0976311 1.31658 0.292893 1.70711L1.70711 0.292893ZM23 23L22.2929 23.7071C22.4804 23.8946 22.7348 24 23 24C23.2652 24 23.5196 23.8946 23.7071 23.7071L23 23ZM45.7071 1.70711C46.0976 1.31658 46.0976 0.683417 45.7071 0.292893C45.3166 -0.0976311 44.6834 -0.0976311 44.2929 0.292893L45.7071 1.70711ZM0.292893 1.70711L22.2929 23.7071L23.7071 22.2929L1.70711 0.292893L0.292893 1.70711ZM23.7071 23.7071L45.7071 1.70711L44.2929 0.292893L22.2929 22.2929L23.7071 23.7071Z" fill="white"/>
</svg>
