<svg width="214" height="53" viewBox="0 0 214 53" fill="none" xmlns="http://www.w3.org/2000/svg">
<path d="M41.6597 22.0769C41.6597 27.7913 39.4602 32.9802 35.8797 36.8063C32.0878 40.8584 20.8299 52.1274 20.8299 52.1274C20.8299 52.1274 9.57196 40.8584 5.77999 36.8063C2.19957 32.9802 0 27.7913 0 22.0769C0 10.3105 9.32585 0.771973 20.8299 0.771973C32.3339 0.771973 41.6597 10.3105 41.6597 22.0769Z" fill="#D2D6E3"/>
<path d="M53.8383 15.8907V10.7602H57.8434C58.3055 10.7602 58.6752 10.9022 58.9679 11.2022C59.2452 11.5021 59.3838 11.8968 59.3838 12.4177V14.1542C59.3838 14.7541 59.5533 15.2119 59.8768 15.5434C60.2003 15.8749 60.647 16.0486 61.2323 16.0486H61.6945V15.3382H61.2323C60.5083 15.3382 60.154 14.9435 60.154 14.1542V12.4177C60.154 11.9599 60.077 11.6126 59.923 11.3443C59.7689 11.0759 59.5995 10.8707 59.4146 10.7286C59.199 10.5549 58.9525 10.4444 58.6906 10.3971V10.3339C58.9371 10.2866 59.1528 10.1761 59.3376 10.0182C59.5071 9.87614 59.6611 9.6867 59.7997 9.43412C59.9384 9.18155 60 8.83425 60 8.39223V6.73468C60 5.94537 60.3543 5.55071 61.0783 5.55071H61.5404V4.84033H61.0783C60.4929 4.84033 60.0462 4.99819 59.7227 5.32971C59.3992 5.66122 59.2298 6.1348 59.2298 6.73468V8.39223C59.2298 8.91318 59.0911 9.30784 58.8139 9.60777C58.5212 9.90771 58.1515 10.0498 57.6894 10.0498H53.8383V4.99819H53.0681V15.8907H53.8383Z" fill="white"/>
<path d="M65.6178 12.9702H72.0876L72.7808 15.8907H73.551L71.0093 4.99819H66.6961L64.1544 15.8907H64.9246L65.6178 12.9702ZM65.7718 12.2599L67.3122 5.70857H70.3931L71.9335 12.2599H65.7718Z" fill="white"/>
<path d="M85.2571 8.78689C85.2571 8.25016 85.1647 7.745 84.9644 7.2872C84.7641 6.8294 84.5023 6.43474 84.148 6.08744C83.7937 5.75593 83.3778 5.48757 82.8848 5.28235C82.3919 5.09291 81.8527 4.99819 81.252 4.99819H76.9387V15.8907H77.709V12.5756H81.252C81.8527 12.5756 82.3919 12.4809 82.8848 12.2756C83.3778 12.0862 83.7937 11.8178 84.148 11.4705C84.5023 11.139 84.7641 10.7286 84.9644 10.2708C85.1647 9.81299 85.2571 9.32362 85.2571 8.78689ZM84.4869 8.78689C84.4869 9.21312 84.4098 9.62356 84.2558 10.0024C84.1018 10.3813 83.8861 10.7128 83.5934 10.9812C83.3007 11.2495 82.9618 11.4705 82.5767 11.6284C82.1762 11.7863 81.7295 11.8652 81.252 11.8652H77.709V5.70857H81.252C81.7295 5.70857 82.1762 5.78751 82.5767 5.94537C82.9618 6.10323 83.3007 6.32424 83.5934 6.5926C83.8861 6.87676 84.1018 7.20827 84.2558 7.57135C84.4098 7.95022 84.4869 8.36066 84.4869 8.78689Z" fill="white"/>
<path d="M87.871 5.70857H91.7221V15.8907H92.4923V5.70857H96.3434V4.99819H87.871V5.70857Z" fill="white"/>
<path d="M99.1974 12.9702H105.667L106.36 15.8907H107.131L104.589 4.99819H100.276L97.734 15.8907H98.5042L99.1974 12.9702ZM99.3514 12.2599L100.892 5.70857H103.973L105.513 12.2599H99.3514Z" fill="white"/>
<path d="M60.3851 22.0999L53.9153 31.6506H53.8383V22.0999H53.0681V32.9924H53.9153L60.3851 23.4418H60.4621V32.9924H61.2323V22.0999H60.3851Z" fill="white"/>
<path d="M65.545 22.0999V32.9924H66.3152V27.8619H72.785V32.9924H73.5552V22.0999H72.785V27.1515H66.3152V22.0999H65.545Z" fill="white"/>
<path d="M77.8714 22.0999V32.9924H78.6416V27.8619H85.1115V32.9924H85.8817V22.0999H85.1115V27.1515H78.6416V22.0999H77.8714Z" fill="white"/>
<path d="M99.9026 27.5462C99.9026 28.2566 99.764 28.9354 99.5021 29.5668C99.2402 30.1983 98.8859 30.7508 98.4392 31.2244C97.9925 31.698 97.4841 32.0768 96.9142 32.3452C96.3442 32.6136 95.7435 32.7556 95.1273 32.7556C94.5111 32.7556 93.9103 32.6136 93.3404 32.3452C92.7704 32.0768 92.2621 31.698 91.8154 31.2244C91.3686 30.7508 91.0143 30.1983 90.7525 29.5668C90.4906 28.9354 90.3519 28.2566 90.3519 27.5462C90.3519 26.8358 90.4906 26.1728 90.7525 25.5413C91.0143 24.9099 91.3686 24.3574 91.8154 23.8838C92.2621 23.4102 92.7704 23.0313 93.3404 22.7472C93.9103 22.4788 94.5111 22.3367 95.1273 22.3367C95.7435 22.3367 96.3442 22.4788 96.9142 22.7472C97.4841 23.0313 97.9925 23.4102 98.4392 23.8838C98.8859 24.3574 99.2402 24.9099 99.5021 25.5413C99.764 26.1728 99.9026 26.8358 99.9026 27.5462ZM89.5817 27.5462C89.5817 28.3513 89.7358 29.1248 90.0439 29.8352C90.3365 30.5456 90.7525 31.177 91.2608 31.7138C91.7691 32.2505 92.3545 32.6767 93.0323 32.9924C93.6947 33.3082 94.4033 33.466 95.1273 33.466C95.8513 33.466 96.5599 33.3082 97.2377 32.9924C97.9001 32.6767 98.5008 32.2505 99.0092 31.7138C99.5175 31.177 99.918 30.5456 100.226 29.8352C100.519 29.1248 100.673 28.3513 100.673 27.5462C100.673 26.7411 100.519 25.9676 100.226 25.2572C99.918 24.5468 99.5175 23.9154 99.0092 23.3786C98.5008 22.8419 97.9001 22.4157 97.2377 22.0999C96.5599 21.7842 95.8513 21.6264 95.1273 21.6264C94.4033 21.6264 93.6947 21.7842 93.0323 22.0999C92.3545 22.4157 91.7691 22.8419 91.2608 23.3786C90.7525 23.9154 90.3365 24.5468 90.0439 25.2572C89.7358 25.9676 89.5817 26.7411 89.5817 27.5462Z" fill="white"/>
<path d="M105.145 22.8103H108.842C109.165 22.8103 109.474 22.8577 109.735 22.9524C109.997 23.0629 110.228 23.205 110.413 23.3786C110.598 23.5523 110.737 23.7733 110.845 24.0101C110.952 24.2469 110.999 24.5152 110.999 24.7836C110.999 25.3835 110.798 25.8728 110.413 26.2517C110.028 26.6464 109.504 26.8358 108.842 26.8358H105.145V22.8103ZM109.612 32.2821H105.145V27.5462H109.612C109.997 27.5462 110.336 27.6093 110.66 27.7198C110.968 27.8461 111.23 28.0198 111.461 28.225C111.692 28.4302 111.861 28.6828 111.984 28.9669C112.092 29.2669 112.154 29.5826 112.154 29.9141C112.154 30.2456 112.092 30.5614 111.984 30.8455C111.861 31.1454 111.692 31.398 111.461 31.6032C111.23 31.8085 110.968 31.9821 110.66 32.0926C110.336 32.2189 109.997 32.2821 109.612 32.2821ZM108.842 22.0999H104.375V32.9924H109.612C110.09 32.9924 110.536 32.9135 110.952 32.7399C111.353 32.582 111.707 32.361 112 32.0768C112.293 31.7927 112.508 31.4612 112.678 31.0823C112.847 30.7192 112.924 30.3246 112.924 29.9141C112.924 29.5984 112.893 29.3142 112.816 29.0617C112.739 28.8249 112.631 28.6039 112.508 28.3986C112.385 28.2092 112.246 28.0356 112.092 27.8935C111.938 27.7514 111.784 27.6409 111.615 27.5462C111.23 27.3094 110.783 27.1515 110.305 27.0726V26.9937C110.567 26.899 110.814 26.7569 111.029 26.5674C111.214 26.3938 111.384 26.1728 111.538 25.8886C111.692 25.6203 111.769 25.2414 111.769 24.7836C111.769 24.4205 111.692 24.089 111.553 23.7575C111.414 23.4418 111.214 23.1576 110.952 22.905C110.69 22.6682 110.367 22.463 110.013 22.3209C109.658 22.1789 109.258 22.0999 108.842 22.0999Z" fill="white"/>
<path d="M117 30.072H123.469L124.163 32.9924H124.933L122.391 22.0999H118.078L115.536 32.9924H116.306L117 30.072ZM117.154 29.3616L118.694 22.8103H121.775L123.315 29.3616H117.154Z" fill="white"/>
<path d="M128.321 32.9924H136.485V35.0446H137.255V32.2821H136.023V22.0999H135.253V32.2821H129.091V22.0999H128.321V32.9924Z" fill="white"/>
<path d="M147.814 22.0999L141.344 31.6506H141.267V22.0999H140.497V32.9924H141.344L147.814 23.4418H147.891V32.9924H148.661V22.0999H147.814Z" fill="white"/>
<path d="M162.678 27.5462C162.678 28.2566 162.54 28.9354 162.278 29.5668C162.016 30.1983 161.662 30.7508 161.215 31.2244C160.768 31.698 160.26 32.0768 159.69 32.3452C159.12 32.6136 158.519 32.7556 157.903 32.7556C157.287 32.7556 156.686 32.6136 156.116 32.3452C155.546 32.0768 155.038 31.698 154.591 31.2244C154.144 30.7508 153.79 30.1983 153.528 29.5668C153.266 28.9354 153.128 28.2566 153.128 27.5462C153.128 26.8358 153.266 26.1728 153.528 25.5413C153.79 24.9099 154.144 24.3574 154.591 23.8838C155.038 23.4102 155.546 23.0313 156.116 22.7472C156.686 22.4788 157.287 22.3367 157.903 22.3367C158.519 22.3367 159.12 22.4788 159.69 22.7472C160.26 23.0313 160.768 23.4102 161.215 23.8838C161.662 24.3574 162.016 24.9099 162.278 25.5413C162.54 26.1728 162.678 26.8358 162.678 27.5462ZM152.357 27.5462C152.357 28.3513 152.511 29.1248 152.819 29.8352C153.112 30.5456 153.528 31.177 154.036 31.7138C154.545 32.2505 155.13 32.6767 155.808 32.9924C156.47 33.3082 157.179 33.466 157.903 33.466C158.627 33.466 159.336 33.3082 160.013 32.9924C160.676 32.6767 161.276 32.2505 161.785 31.7138C162.293 31.177 162.694 30.5456 163.002 29.8352C163.294 29.1248 163.448 28.3513 163.448 27.5462C163.448 26.7411 163.294 25.9676 163.002 25.2572C162.694 24.5468 162.293 23.9154 161.785 23.3786C161.276 22.8419 160.676 22.4157 160.013 22.0999C159.336 21.7842 158.627 21.6264 157.903 21.6264C157.179 21.6264 156.47 21.7842 155.808 22.0999C155.13 22.4157 154.545 22.8419 154.036 23.3786C153.528 23.9154 153.112 24.5468 152.819 25.2572C152.511 25.9676 152.357 26.7411 152.357 27.5462Z" fill="white"/>
<path d="M167.15 22.0999V32.9924H167.921V27.8619H174.39V32.9924H175.161V22.0999H174.39V27.1515H167.921V22.0999H167.15Z" fill="white"/>
<path d="M179.477 22.0999V32.9924H180.247V27.8619H186.717V32.9924H187.487V22.0999H186.717V27.1515H180.247V22.0999H179.477Z" fill="white"/>
<path d="M199.351 29.4405C199.351 28.9512 199.259 28.4776 199.074 28.0513C198.889 27.6251 198.627 27.2463 198.304 26.9147C197.98 26.599 197.58 26.3464 197.118 26.157C196.64 25.9834 196.132 25.8886 195.577 25.8886H192.573V22.0999H191.803V32.9924H195.577C196.132 32.9924 196.64 32.8977 197.118 32.7083C197.58 32.5346 197.98 32.2821 198.304 31.9505C198.627 31.6348 198.889 31.256 199.074 30.8297C199.259 30.4035 199.351 29.9299 199.351 29.4405ZM198.581 29.4405C198.581 29.8352 198.504 30.2141 198.366 30.5456C198.211 30.8929 198.011 31.1928 197.749 31.4454C197.487 31.7138 197.164 31.919 196.794 32.061C196.425 32.2031 196.024 32.2821 195.577 32.2821H192.573V26.599H195.577C196.024 26.599 196.425 26.6779 196.794 26.82C197.164 26.9621 197.487 27.1673 197.749 27.4199C198.011 27.6883 198.211 27.9882 198.366 28.3355C198.504 28.6828 198.581 29.0459 198.581 29.4405ZM201.816 32.9924V22.0999H201.046V32.9924H201.816Z" fill="white"/>
<path d="M213.448 22.0999H212.6L209.442 26.6779H209.365L206.208 22.0999H205.36L208.98 27.3094L205.052 32.9924H205.899L209.365 27.9408H209.442L212.908 32.9924H213.756L209.828 27.3094L213.448 22.0999Z" fill="white"/>
<path d="M61.3864 42.9904C61.3864 42.4536 61.294 41.9485 61.0937 41.4907C60.8935 41.0329 60.6316 40.6382 60.2773 40.2909C59.923 39.9594 59.5071 39.6911 59.0141 39.4858C58.5212 39.2964 57.982 39.2017 57.3813 39.2017H53.0681V50.0942H53.8383V46.7791H57.3813C57.982 46.7791 58.5212 46.6844 59.0141 46.4791C59.5071 46.2897 59.923 46.0213 60.2773 45.674C60.6316 45.3425 60.8935 44.9321 61.0937 44.4743C61.294 44.0165 61.3864 43.5271 61.3864 42.9904ZM60.6162 42.9904C60.6162 43.4166 60.5392 43.827 60.3851 44.2059C60.2311 44.5848 60.0154 44.9163 59.7227 45.1847C59.43 45.453 59.0911 45.674 58.706 45.8319C58.3055 45.9898 57.8588 46.0687 57.3813 46.0687H53.8383V39.9121H57.3813C57.8588 39.9121 58.3055 39.991 58.706 40.1489C59.0911 40.3067 59.43 40.5277 59.7227 40.7961C60.0154 41.0802 60.2311 41.4118 60.3851 41.7748C60.5392 42.1537 60.6162 42.5642 60.6162 42.9904Z" fill="white"/>
<path d="M72.4727 49.3838H65.8488V44.9637H71.0863V44.2533H65.8488V39.9121H72.4727V39.2017H65.0786V50.0942H72.4727V49.3838Z" fill="white"/>
<path d="M75.8556 39.2017V50.0942H88.3331V39.2017H87.5629V49.3838H82.4795V39.2017H81.7093V49.3838H76.6258V39.2017H75.8556Z" fill="white"/>
<path d="M100.044 49.3838H93.4202V44.9637H98.6576V44.2533H93.4202V39.9121H100.044V39.2017H92.65V50.0942H100.044V49.3838Z" fill="white"/>
<path d="M103.427 39.2017V50.0942H104.197V44.9637H110.667V50.0942H111.437V39.2017H110.667V44.2533H104.197V39.2017H103.427Z" fill="white"/>
<path d="M123.07 39.2017L116.601 48.7524H116.524V39.2017H115.753V50.0942H116.601L123.07 40.5435H123.148V50.0942H123.918V39.2017H123.07Z" fill="white"/>
<path d="M132.312 37.7809C132.898 37.7809 133.375 37.5915 133.76 37.1968C134.13 36.818 134.315 36.3286 134.315 35.7287H133.699C133.699 36.1234 133.56 36.4707 133.298 36.739C133.036 37.0074 132.698 37.1495 132.312 37.1495C131.927 37.1495 131.588 37.0074 131.327 36.739C131.065 36.4707 130.926 36.1234 130.926 35.7287H130.31C130.31 36.3286 130.495 36.818 130.88 37.1968C131.25 37.5915 131.727 37.7809 132.312 37.7809ZM135.547 39.2017L129.078 48.7524H129.001V39.2017H128.23V50.0942H129.078L135.547 40.5435H135.624V50.0942H136.395V39.2017H135.547Z" fill="white"/>
<mask id="path-3-inside-1_1_59" fill="white">
<path fill-rule="evenodd" clip-rule="evenodd" d="M30.1624 28.5823C31.3736 26.7368 32.0805 24.5143 32.0805 22.1226C32.0805 15.7239 27.021 10.5366 20.7798 10.5366C14.5386 10.5366 9.47906 15.7239 9.47906 22.1226C9.47906 24.5145 10.186 26.737 11.3973 28.5827L20.78 18.9631L30.1624 28.5823Z"/>
</mask>
<path fill-rule="evenodd" clip-rule="evenodd" d="M30.1624 28.5823C31.3736 26.7368 32.0805 24.5143 32.0805 22.1226C32.0805 15.7239 27.021 10.5366 20.7798 10.5366C14.5386 10.5366 9.47906 15.7239 9.47906 22.1226C9.47906 24.5145 10.186 26.737 11.3973 28.5827L20.78 18.9631L30.1624 28.5823Z" fill="#E53151"/>
<path d="M30.1624 28.5823L25.8672 32.7718L31.0814 38.1176L35.1786 31.8744L30.1624 28.5823ZM11.3973 28.5827L6.3812 31.8748L10.4785 38.1177L15.6925 32.7721L11.3973 28.5827ZM20.78 18.9631L25.0752 14.7736L20.78 10.37L16.4848 14.7736L20.78 18.9631ZM26.0805 22.1226C26.0805 23.3179 25.7304 24.4002 25.1462 25.2903L35.1786 31.8744C37.0169 29.0733 38.0805 25.7108 38.0805 22.1226H26.0805ZM20.7798 16.5366C23.5671 16.5366 26.0805 18.8957 26.0805 22.1226H38.0805C38.0805 12.5521 30.4748 4.53662 20.7798 4.53662V16.5366ZM15.4791 22.1226C15.4791 18.8957 17.9924 16.5366 20.7798 16.5366V4.53662C11.0847 4.53662 3.47906 12.5521 3.47906 22.1226H15.4791ZM16.4134 25.2905C15.8292 24.4003 15.4791 23.318 15.4791 22.1226H3.47906C3.47906 25.711 4.54276 29.0737 6.3812 31.8748L16.4134 25.2905ZM15.6925 32.7721L25.0752 23.1525L16.4848 14.7736L7.10213 24.3932L15.6925 32.7721ZM16.4848 23.1525L25.8672 32.7718L34.4576 24.3929L25.0752 14.7736L16.4848 23.1525Z" fill="#E53151" mask="url(#path-3-inside-1_1_59)"/>
<rect x="4.18943" width="9.08111" height="9.08111" transform="matrix(0.698238 -0.715865 0.698238 0.715865 11.5163 44.3438)" stroke="white" stroke-width="6"/>
<rect x="4.18943" width="17.1734" height="17.1734" transform="matrix(0.698238 -0.715866 0.698238 0.715866 5.86181 38.5513)" fill="#0054D1" stroke="#0054D1" stroke-width="6"/>
</svg>
