<svg width="24" height="46" viewBox="0 0 24 46" fill="none" xmlns="http://www.w3.org/2000/svg">
<path d="M0.292893 44.2929C-0.0976311 44.6834 -0.0976311 45.3166 0.292893 45.7071C0.683417 46.0976 1.31658 46.0976 1.70711 45.7071L0.292893 44.2929ZM23 23L23.7071 23.7071C23.8946 23.5196 24 23.2652 24 23C24 22.7348 23.8946 22.4804 23.7071 22.2929L23 23ZM1.70711 0.292892C1.31658 -0.0976295 0.683417 -0.0976295 0.292893 0.292892C-0.0976311 0.683418 -0.0976311 1.31658 0.292893 1.70711L1.70711 0.292892ZM1.70711 45.7071L23.7071 23.7071L22.2929 22.2929L0.292893 44.2929L1.70711 45.7071ZM23.7071 22.2929L1.70711 0.292892L0.292893 1.70711L22.2929 23.7071L23.7071 22.2929Z" fill="white"/>
</svg>
