<svg width="134" height="102" viewBox="0 0 134 102" fill="none" xmlns="http://www.w3.org/2000/svg">
<rect x="1.85242" y="21.7246" width="130.648" height="59.4846" rx="4.5" stroke="white" stroke-width="3"/>
<path d="M29.1604 28.8564V38.5008C25.0271 40.3378 19.6539 46.4918 31.227 56.4116C31.227 61.9227 32.3292 74.047 36.738 78.4558" stroke="white" stroke-width="3" stroke-linecap="round"/>
<path d="M104.248 28.8564V38.5008C108.381 40.3378 113.755 46.4918 102.182 56.4116C102.182 61.9227 101.079 74.047 96.6706 78.4558" stroke="white" stroke-width="3" stroke-linecap="round"/>
<path d="M58.0933 30.2336C55.3378 27.9373 47.3467 25.1358 37.4269 32.3002" stroke="white" stroke-width="3" stroke-linecap="round"/>
<path d="M74.6264 30.2336C77.3819 27.9373 85.3729 25.1358 95.2928 32.3002" stroke="white" stroke-width="3" stroke-linecap="round"/>
<path d="M40.8713 39.1895C42.4787 41.4857 47.4845 44.7005 54.6489 39.1895" stroke="white" stroke-width="3" stroke-linecap="round"/>
<path d="M91.8484 39.1895C90.241 41.4857 85.2351 44.7005 78.0708 39.1895" stroke="white" stroke-width="3" stroke-linecap="round"/>
<path d="M59.4711 56.4116C61.7673 61.0042 67.8754 67.4337 73.9375 56.4116" stroke="white" stroke-width="3" stroke-linecap="round"/>
<path d="M56.0266 70.189C59.9303 73.4037 69.8042 77.9044 78.0708 70.189" stroke="white" stroke-width="3" stroke-linecap="round"/>
<path d="M7.29517 11.1123H126.623" stroke="white" stroke-width="3" stroke-linecap="round"/>
<path d="M7.29517 91.3877H126.623" stroke="white" stroke-width="3" stroke-linecap="round"/>
<path d="M17.7092 2H116.643" stroke="white" stroke-width="3" stroke-linecap="round"/>
<path d="M17.7092 100.5H116.643" stroke="white" stroke-width="3" stroke-linecap="round"/>
</svg>
