<svg width="127" height="136" viewBox="0 0 127 136" fill="none" xmlns="http://www.w3.org/2000/svg">
<path d="M21.9327 134.29C25.1364 122.116 22.9922 96.7948 9.11819 75.9839C-13.9481 41.3847 22.5734 -9.2328 68.0651 4.22246C104.458 14.9867 112.275 42.0253 111.634 54.199L123.808 72.7801C125.944 76.4109 126.499 83.5443 111.634 83.0317V102.894C111.634 106.098 108.559 112.633 96.257 113.146H86.0053V134.29" stroke="white" stroke-width="3" stroke-linecap="round"/>
<path d="M66.7835 4.22241C77.4623 15.9691 93.7616 39.1633 71.2686 70.858C57.1726 90.7205 71.9092 113.146 86.0053 113.146" stroke="white" stroke-width="3" stroke-linecap="round"/>
<path d="M4.63299 37.5404H36.0286L41.7951 32.4146" stroke="white" stroke-width="3" stroke-linecap="round"/>
<path d="M80.8795 28.5701H69.9871" stroke="white" stroke-width="3" stroke-linecap="round"/>
<path d="M2.71081 47.792H54.6097" stroke="white" stroke-width="3" stroke-linecap="round"/>
<path d="M7.1959 73.4209V59.325H25.777L31.5435 65.0915" stroke="white" stroke-width="3" stroke-linecap="round"/>
<path d="M12.9624 81.7505H36.6693" stroke="white" stroke-width="3" stroke-linecap="round"/>
<path d="M74.4722 66.373H60.3762" stroke="white" stroke-width="3" stroke-linecap="round"/>
<path d="M65.502 91.3613H53.969L48.8431 99.0501" stroke="white" stroke-width="3" stroke-linecap="round"/>
<circle cx="46.921" cy="103.535" r="3.62582" stroke="white" stroke-width="3"/>
<circle cx="41.7952" cy="81.7506" r="3.62582" stroke="white" stroke-width="3"/>
<circle cx="34.1064" cy="68.9359" r="3.62582" stroke="white" stroke-width="3"/>
<circle cx="61.017" cy="47.1512" r="3.62582" stroke="white" stroke-width="3"/>
<circle cx="55.8911" cy="66.3731" r="3.62582" stroke="white" stroke-width="3"/>
<circle cx="44.3581" cy="29.2108" r="3.62582" stroke="white" stroke-width="3"/>
<circle cx="64.8613" cy="27.9295" r="3.62582" stroke="white" stroke-width="3"/>
<path d="M91.7719 56.1213C94.7619 58.8978 101.639 62.7849 105.227 56.1213" stroke="white" stroke-width="3" stroke-linecap="round"/>
<path d="M111.634 94.5649H102.664" stroke="white" stroke-width="3" stroke-linecap="round"/>
</svg>
