<svg width="146" height="140" viewBox="0 0 146 140" fill="none" xmlns="http://www.w3.org/2000/svg">
<path d="M139 67C139 31.1015 110.122 2 74.5 2C38.8776 2 10 31.1015 10 67" stroke="white" stroke-width="4" stroke-linecap="round"/>
<path d="M49.7348 117.18C77.8725 129.682 110.818 117.008 123.32 88.8699C135.823 60.7322 123.148 27.7869 95.0103 15.2844" stroke="white" stroke-width="4" stroke-linecap="round"/>
<path d="M62.4393 23.1792C38.9516 30.2794 25.6669 55.0758 32.7671 78.5635C39.8673 102.051 64.6637 115.336 88.1514 108.236" stroke="white" stroke-width="4" stroke-linecap="round"/>
<path d="M139 66C139 101.899 109.899 131 74 131" stroke="white" stroke-width="4" stroke-linecap="round"/>
<path d="M50.9478 117.719C22.8101 105.216 10.1353 72.271 22.6378 44.1333" stroke="white" stroke-width="4" stroke-linecap="round"/>
<path d="M61.4268 23.4857C84.9145 16.3856 109.711 29.6703 116.811 53.158" stroke="white" stroke-width="4" stroke-linecap="round"/>
<circle cx="46.4589" cy="100.238" r="5.30959" fill="white"/>
<circle cx="128.758" cy="68.3804" r="5.30959" fill="white"/>
</svg>
